<?xml version="1.0" standalone="no"?>
<!DOCTYPE svg PUBLIC "-//W3C//DTD SVG 20010904//EN"
 "http://www.w3.org/TR/2001/REC-SVG-20010904/DTD/svg10.dtd">
<svg version="1.0" xmlns="http://www.w3.org/2000/svg"
 width="322.000000pt" height="322.000000pt" viewBox="0 0 322.000000 322.000000"
 preserveAspectRatio="xMidYMid meet">
<metadata>
Created by potrace 1.11, written by Peter Selinger 2001-2013
</metadata>
<g transform="translate(0.000000,322.000000) scale(0.100000,-0.100000)"
fill="#000000" stroke="none">
<path d="M1470 3113 c-87 -9 -214 -37 -315 -70 -465 -149 -818 -504 -964 -968
-55 -175 -71 -278 -71 -454 0 -428 158 -794 471 -1096 276 -266 630 -405 1029
-405 74 0 167 5 205 10 232 33 479 132 667 267 106 75 267 237 341 340 123
173 227 419 262 620 23 131 20 419 -5 541 -65 317 -192 555 -414 778 -209 208
-401 318 -691 394 -166 44 -359 60 -515 43z m-130 -410 c115 -56 158 -66 275
-67 117 -1 165 11 289 71 82 39 96 43 166 43 62 0 86 -5 127 -26 183 -91 225
-332 83 -474 -58 -58 -123 -84 -210 -85 -69 0 -82 4 -161 43 -113 56 -174 72
-288 72 -115 0 -190 -19 -295 -73 -73 -39 -86 -42 -155 -42 -92 0 -150 24
-211 85 -61 61 -85 119 -85 210 0 59 5 85 24 123 30 62 82 113 146 144 42 20
62 23 130 21 70 -3 91 -9 165 -45z m494 -643 c18 -10 38 -30 45 -43 12 -23 18
-24 75 -20 49 3 67 0 93 -16 46 -29 65 -64 66 -121 1 -57 -18 -90 -74 -128
-32 -23 -80 -26 -138 -11 -11 3 -17 -15 -27 -73 -13 -86 -35 -130 -77 -162
-26 -19 -42 -21 -180 -21 -132 0 -156 3 -179 19 -44 29 -67 77 -80 165 -9 69
-14 81 -27 75 -9 -4 -36 -9 -61 -11 -82 -7 -150 59 -150 147 0 92 60 144 161
138 52 -3 60 0 75 20 39 56 64 62 263 62 165 0 187 -2 215 -20z m455 -555 c-1
-55 4 -94 16 -125 32 -80 30 -271 -2 -270 -5 1 -17 15 -28 32 -26 42 -110 105
-158 120 -36 11 -37 12 -31 47 4 20 13 53 22 74 11 30 12 44 3 63 -17 38 -15
41 42 77 28 18 66 49 82 68 29 35 30 35 43 15 7 -13 12 -53 11 -101z m-1271
67 c28 -27 64 -55 81 -62 32 -13 39 -36 22 -68 -6 -12 -3 -35 9 -72 29 -83 27
-92 -28 -114 -28 -12 -72 -45 -110 -83 -35 -35 -66 -63 -68 -63 -2 0 -8 19
-15 43 -14 54 -5 161 21 229 15 39 18 65 13 108 -5 49 9 130 22 130 2 0 26
-22 53 -48z m464 -229 c28 -83 49 -267 55 -473 8 -275 -4 -308 -109 -298 -56
6 -96 31 -118 74 -20 39 -25 194 -10 298 30 209 117 465 154 453 6 -2 19 -26
28 -54z m351 -21 c57 -126 108 -369 111 -522 2 -128 -19 -184 -78 -211 -51
-23 -119 -25 -140 -3 -27 26 -31 62 -30 244 1 315 51 600 98 561 8 -6 25 -37
39 -69z m-305 -814 c7 -7 12 -16 12 -20 0 -4 -56 -8 -125 -8 -123 0 -125 0
-115 20 10 18 21 20 113 20 67 0 107 -4 115 -12z m410 -10 c3 -16 -8 -18 -117
-18 -94 0 -121 3 -121 13 0 25 14 28 124 25 96 -3 111 -5 114 -20z"/>
<path d="M1110 2691 c-71 -23 -122 -66 -156 -131 -26 -51 -25 -152 3 -206 49
-93 157 -146 256 -124 212 45 260 325 75 434 -47 27 -136 41 -178 27z m45
-106 c14 -13 25 -33 25 -45 0 -26 -34 -60 -60 -60 -25 0 -70 42 -70 65 0 21
44 65 65 65 9 0 27 -11 40 -25z m103 -221 c6 -40 -48 -56 -62 -18 -10 26 5 45
33 42 17 -2 27 -10 29 -24z"/>
<path d="M2001 2688 c-135 -38 -210 -197 -152 -323 35 -77 137 -145 219 -145
46 0 119 32 156 67 52 50 76 105 76 174 0 156 -150 270 -299 227z m55 -104
c20 -19 24 -31 19 -52 -13 -55 -70 -69 -104 -26 -27 34 -26 50 4 79 31 32 50
31 81 -1z m101 -210 c6 -17 -6 -45 -23 -51 -21 -7 -47 23 -40 45 9 27 53 30
63 6z"/>
</g>
</svg>
